<?xml version="1.0" encoding="UTF-8"?>
<svg width="97px" height="100px" viewBox="0 0 97 100" version="1.1" xmlns="http://www.w3.org/2000/svg" xmlns:xlink="http://www.w3.org/1999/xlink">
    <!-- Generator: Sketch 48.2 (47327) - http://www.bohemiancoding.com/sketch -->
    <title>icon/100/workflow</title>
    <desc>Created with Sketch.</desc>
    <defs></defs>
    <g id="Symbols" stroke="none" stroke-width="1" fill="none" fill-rule="evenodd">
        <g id="icon/100/workflow">
            <rect id="base" fill="#FFFFFF" opacity="0" x="0" y="0" width="97" height="100"></rect>
            <g id="idea" transform="translate(5.000000, 0.000000)" fill-rule="nonzero">
                <polygon id="Shape" fill="#FFC65D" points="26.3300836 40.3205208 43.6643454 30.3917708 60.9986072 40.3205208 43.6643454 50.250625"></polygon>
                <polygon id="Shape" fill="#4CC3D9" points="26.3300836 40.3205208 43.6643454 50.250625 43.6643454 70.108125 26.3300836 60.179375"></polygon>
                <polygon id="Shape" fill="#F16745" points="60.9986072 40.3205208 60.9986072 60.179375 43.6643454 70.108125 43.6643454 50.250625"></polygon>
                <polygon id="Shape" fill="#F36B21" points="52.3314763 55.215 69.6657382 45.28625 87 55.215 69.6657382 65.14375"></polygon>
                <polygon id="Shape" fill="#A3292E" points="52.3314763 55.215 69.6657382 65.14375 69.6657382 85.0026042 52.3314763 75.0738542"></polygon>
                <polygon id="Shape" fill="#554689" points="87 55.215 87 75.0738542 69.6657382 85.0026042 69.6657382 65.14375"></polygon>
                <polygon id="Shape" fill="#F36B21" points="0.328690808 55.215 17.6629526 45.28625 34.9972145 55.215 17.6629526 65.14375"></polygon>
                <polygon id="Shape" fill="#A3292E" points="0.328690808 55.215 17.6629526 65.14375 17.6629526 85.0026042 0.328690808 75.0738542"></polygon>
                <polygon id="Shape" fill="#554689" points="34.9972145 55.215 34.9972145 75.0738542 17.6629526 85.0026042 17.6629526 65.14375"></polygon>
                <polygon id="Shape" fill="#ADC9E8" points="52.1949861 55.0836458 69.5292479 74.0663542 59.2924791 78.9413542 59.2924791 78.9413542"></polygon>
                <polygon id="Shape" fill="#F36B21" points="26.3300836 70.108125 43.6643454 60.179375 60.9986072 70.108125 43.6643454 80.0382292"></polygon>
                <polygon id="Shape" fill="#A3292E" points="26.3300836 70.108125 43.6643454 80.0382292 43.6643454 99.8970833 26.3300836 89.9669792"></polygon>
                <polygon id="Shape" fill="#554689" points="60.9986072 70.108125 60.9986072 89.9669792 43.6643454 99.8970833 43.6643454 80.0382292"></polygon>
                <polygon id="Shape" fill="#F36B21" points="26.3300836 10.5329167 43.6643454 0.604166667 60.9986072 10.5329167 43.6643454 20.4630208"></polygon>
                <polygon id="Shape" fill="#A3292E" points="26.3300836 10.5329167 43.6643454 20.4630208 43.6643454 40.3205208 26.3300836 30.3917708"></polygon>
                <polygon id="Shape" fill="#554689" points="60.9986072 10.5329167 60.9986072 30.3917708 43.6643454 40.3205208 43.6643454 20.4630208"></polygon>
                <polygon id="Shape" fill="#F36B21" points="52.3314763 25.4273958 69.6657382 15.4972917 87 25.4273958 69.6657382 35.3561458"></polygon>
                <polygon id="Shape" fill="#ECE198" points="77.4511421 49.5451042 83.1482451 52.8086458 69.7503621 64.9934375"></polygon>
                <polygon id="Shape" fill="#F5BE7A" points="73.3250418 47.1820833 61.6087187 51.7334375 61.0668524 60.1184375 61.0613928 60.0155208 77.4456825 49.5559375"></polygon>
                <polygon id="Shape" fill="#ECE198" points="49.6071309 63.4930208 55.304234 66.7565625 41.906351 78.9413542"></polygon>
                <polygon id="Shape" fill="#F5BE7A" points="45.4810306 61.13 33.7647075 65.6813542 33.2228412 74.0663542 33.2173816 73.9634375 49.6016713 63.5038542"></polygon>
                <polygon id="Shape" fill="#ECE198" points="23.6739833 48.5971875 29.3710864 51.8607292 15.9732033 64.0455208"></polygon>
                <polygon id="Shape" fill="#F5BE7A" points="19.547883 46.2341667 7.83155989 50.7855208 7.28969359 59.1705208 7.28423398 59.0676042 23.6685237 48.6080208"></polygon>
                <polygon id="Shape" fill="#A3292E" points="52.3314763 25.4273958 69.6657382 35.3561458 69.6657382 55.215 52.3314763 45.28625"></polygon>
                <polygon id="Shape" fill="#ADC9E8" points="26.2618384 10.5315625 43.5961003 29.5142708 33.3593315 34.3892708 33.3593315 34.3892708"></polygon>
                <polygon id="Shape" fill="#ADC9E8" points="52.3314763 25.4273958 69.6657382 44.4101042 59.4289694 49.2851042 59.4289694 49.2851042"></polygon>
                <polygon id="Shape" fill="#ADC9E8" points="26.2618384 40.1878125 43.5961003 59.1705208 33.3593315 64.0455208 26.2618384 60.0466667"></polygon>
                <polygon id="Shape" fill="#554689" points="87 25.4273958 87 45.28625 69.6657382 55.215 69.6657382 35.3561458"></polygon>
                <polygon id="Shape" fill="#F36B21" points="0.328690808 25.4273958 17.6629526 15.4972917 34.9972145 25.4273958 17.6629526 35.3561458"></polygon>
                <polygon id="Shape" fill="#A3292E" points="0.328690808 25.4273958 17.6629526 35.3561458 17.6629526 55.215 0.328690808 45.28625"></polygon>
                <polygon id="Shape" fill="#ADC9E8" points="0.328690808 25.5628125 17.6629526 44.5455208 7.42618384 49.4205208 7.42618384 49.4205208"></polygon>
                <polygon id="Shape" fill="#554689" points="34.9972145 25.4273958 34.9972145 45.28625 17.6629526 55.215 17.6629526 35.3561458"></polygon>
                <polygon id="Shape" fill="#F36B21" points="26.3300836 40.3205208 43.6643454 30.3917708 60.9986072 40.3205208 43.6643454 50.250625"></polygon>
                <polygon id="Shape" fill="#A3292E" points="26.3300836 40.3205208 43.6643454 50.250625 43.6643454 70.108125 26.3300836 60.179375"></polygon>
                <polygon id="Shape" fill="#554689" points="60.9986072 40.3205208 60.9986072 60.179375 43.6643454 70.108125 43.6643454 50.250625"></polygon>
                <polygon id="Shape" fill="#ADC9E8" points="26.2618384 70.1148958 43.5961003 89.0976042 33.3593315 93.9726042 33.3593315 93.9726042"></polygon>
                <polygon id="Shape" fill="#ADC9E8" points="26.2618384 40.3232292 43.5961003 59.3059375 33.3593315 64.1809375 33.3593315 64.1809375"></polygon>
                <polygon id="Shape" fill="#ADC9E8" points="0.328690808 55.2190625 17.6629526 74.2017708 7.42618384 79.0767708 7.42618384 79.0767708"></polygon>
                <polygon id="Shape" fill="#ECE198" points="51.3815042 4.99302083 57.0786072 8.2565625 43.6807242 20.4413542"></polygon>
                <polygon id="Shape" fill="#F5BE7A" points="47.2554039 2.63 35.5390808 7.18135417 34.9972145 15.5663542 34.9917549 15.4634375 51.3760446 5.00385417"></polygon>
                <polygon id="Shape" fill="#ECE198" points="77.4511421 19.8888542 83.1482451 23.1523958 69.7503621 35.3371875"></polygon>
                <polygon id="Shape" fill="#F5BE7A" points="73.3250418 17.5258333 61.6087187 22.0771875 61.0668524 30.4621875 61.0613928 30.3592708 77.4456825 19.8996875"></polygon>
                <polygon id="Shape" fill="#ECE198" points="49.6071309 33.8367708 55.304234 37.1003125 41.906351 49.2851042"></polygon>
                <polygon id="Shape" fill="#F5BE7A" points="45.4810306 31.47375 33.7647075 36.0251042 33.2228412 44.4101042 33.2173816 44.3071875 49.6016713 33.8476042"></polygon>
                <polygon id="Shape" fill="#ECE198" points="23.6739833 18.9409375 29.3710864 22.2044792 15.9732033 34.3892708"></polygon>
                <polygon id="Shape" fill="#F5BE7A" points="19.547883 16.5779167 7.83155989 21.1292708 7.28969359 29.5142708 7.28423398 29.4113542 23.6685237 18.9517708"></polygon>
            </g>
        </g>
    </g>
</svg>